<svg width="144" height="22" viewBox="0 0 144 22" fill="none" xmlns="http://www.w3.org/2000/svg">
<path d="M41.0462 13.22V11.312H46.3742C47.0102 11.312 47.5142 11.144 47.8862 10.808C48.2582 10.46 48.4442 9.98 48.4442 9.368C48.4442 8.732 48.2582 8.246 47.8862 7.91C47.5142 7.574 47.0102 7.406 46.3742 7.406H41.3342V17H38.9402V5.354H46.1582C46.8062 5.354 47.4122 5.432 47.9762 5.588C48.5522 5.744 49.0502 5.984 49.4702 6.308C49.9022 6.632 50.2382 7.046 50.4782 7.55C50.7182 8.054 50.8382 8.66 50.8382 9.368C50.8382 10.064 50.7182 10.658 50.4782 11.15C50.2382 11.642 49.9022 12.044 49.4702 12.356C49.0502 12.656 48.5522 12.878 47.9762 13.022C47.4122 13.154 46.8062 13.22 46.1582 13.22H41.0462ZM63.1354 17H60.7954V8.054H63.1354V17ZM60.9214 12.698L60.9394 13.31C60.9154 13.478 60.8554 13.724 60.7594 14.048C60.6634 14.36 60.5134 14.696 60.3094 15.056C60.1174 15.416 59.8654 15.764 59.5534 16.1C59.2414 16.424 58.8574 16.694 58.4014 16.91C57.9454 17.114 57.4054 17.216 56.7814 17.216C56.2894 17.216 55.8034 17.156 55.3234 17.036C54.8554 16.916 54.4294 16.718 54.0454 16.442C53.6614 16.154 53.3554 15.77 53.1274 15.29C52.8994 14.81 52.7854 14.204 52.7854 13.472V8.054H55.1254V13.076C55.1254 13.652 55.2154 14.108 55.3954 14.444C55.5874 14.768 55.8634 14.996 56.2234 15.128C56.5834 15.26 57.0094 15.326 57.5014 15.326C58.1494 15.326 58.7074 15.188 59.1754 14.912C59.6434 14.624 60.0214 14.276 60.3094 13.868C60.6094 13.46 60.8134 13.07 60.9214 12.698ZM65.4459 4.454H67.7859V17H65.4459V4.454ZM69.7926 14.03H71.9526C72.0846 14.438 72.3546 14.774 72.7626 15.038C73.1826 15.29 73.7286 15.416 74.4006 15.416C74.8566 15.416 75.2106 15.374 75.4626 15.29C75.7146 15.206 75.8886 15.086 75.9846 14.93C76.0806 14.762 76.1286 14.576 76.1286 14.372C76.1286 14.12 76.0506 13.928 75.8946 13.796C75.7386 13.652 75.4986 13.538 75.1746 13.454C74.8506 13.37 74.4366 13.292 73.9326 13.22C73.4286 13.136 72.9426 13.034 72.4746 12.914C72.0066 12.794 71.5926 12.638 71.2326 12.446C70.8726 12.242 70.5846 11.99 70.3686 11.69C70.1646 11.378 70.0626 11 70.0626 10.556C70.0626 10.124 70.1646 9.74 70.3686 9.404C70.5846 9.068 70.8786 8.786 71.2506 8.558C71.6346 8.33 72.0786 8.156 72.5826 8.036C73.0986 7.916 73.6506 7.856 74.2386 7.856C75.1266 7.856 75.8646 7.988 76.4526 8.252C77.0406 8.504 77.4786 8.864 77.7666 9.332C78.0666 9.788 78.2166 10.316 78.2166 10.916H76.1466C76.0506 10.472 75.8586 10.154 75.5706 9.962C75.2826 9.758 74.8386 9.656 74.2386 9.656C73.6506 9.656 73.2066 9.746 72.9066 9.926C72.6066 10.106 72.4566 10.352 72.4566 10.664C72.4566 10.916 72.5466 11.114 72.7266 11.258C72.9186 11.39 73.1946 11.498 73.5546 11.582C73.9266 11.666 74.3886 11.756 74.9406 11.852C75.4086 11.948 75.8526 12.056 76.2726 12.176C76.7046 12.296 77.0886 12.452 77.4246 12.644C77.7606 12.824 78.0246 13.07 78.2166 13.382C78.4206 13.682 78.5226 14.066 78.5226 14.534C78.5226 15.11 78.3546 15.596 78.0186 15.992C77.6946 16.388 77.2266 16.694 76.6146 16.91C76.0026 17.114 75.2706 17.216 74.4186 17.216C73.6626 17.216 73.0086 17.138 72.4566 16.982C71.9166 16.814 71.4666 16.604 71.1066 16.352C70.7466 16.088 70.4646 15.812 70.2606 15.524C70.0686 15.224 69.9366 14.942 69.8646 14.678C69.7926 14.414 69.7686 14.198 69.7926 14.03ZM88.4668 14.03H90.7348C90.6388 14.642 90.3808 15.188 89.9608 15.668C89.5528 16.148 88.9948 16.526 88.2868 16.802C87.5788 17.078 86.7148 17.216 85.6948 17.216C84.5548 17.216 83.5468 17.036 82.6708 16.676C81.7948 16.304 81.1108 15.77 80.6188 15.074C80.1268 14.378 79.8808 13.538 79.8808 12.554C79.8808 11.57 80.1208 10.73 80.6008 10.034C81.0808 9.326 81.7468 8.786 82.5988 8.414C83.4628 8.042 84.4708 7.856 85.6228 7.856C86.7988 7.856 87.7768 8.042 88.5568 8.414C89.3368 8.786 89.9128 9.35 90.2848 10.106C90.6688 10.85 90.8308 11.804 90.7708 12.968H82.2388C82.2988 13.424 82.4668 13.838 82.7428 14.21C83.0308 14.582 83.4148 14.876 83.8948 15.092C84.3868 15.308 84.9688 15.416 85.6408 15.416C86.3848 15.416 87.0028 15.29 87.4948 15.038C87.9988 14.774 88.3228 14.438 88.4668 14.03ZM85.5148 9.638C84.6508 9.638 83.9488 9.83 83.4088 10.214C82.8688 10.586 82.5208 11.048 82.3648 11.6H88.4488C88.3888 11 88.1008 10.526 87.5848 10.178C87.0808 9.818 86.3908 9.638 85.5148 9.638ZM99.028 17.216C98.236 17.216 97.558 17.078 96.994 16.802C96.442 16.514 95.992 16.142 95.644 15.686C95.296 15.218 95.038 14.708 94.87 14.156C94.702 13.604 94.618 13.064 94.618 12.536C94.618 11.876 94.696 11.264 94.852 10.7C95.02 10.136 95.278 9.644 95.626 9.224C95.974 8.792 96.424 8.456 96.976 8.216C97.54 7.976 98.224 7.856 99.028 7.856C99.928 7.856 100.738 8.054 101.458 8.45C102.178 8.846 102.748 9.398 103.168 10.106C103.6 10.802 103.816 11.612 103.816 12.536C103.816 13.484 103.6 14.312 103.168 15.02C102.736 15.716 102.16 16.256 101.44 16.64C100.72 17.024 99.916 17.216 99.028 17.216ZM98.272 15.398C98.908 15.398 99.46 15.278 99.928 15.038C100.408 14.798 100.774 14.468 101.026 14.048C101.29 13.616 101.422 13.112 101.422 12.536C101.422 11.672 101.146 10.976 100.594 10.448C100.054 9.92 99.28 9.656 98.272 9.656C97.636 9.656 97.054 9.77 96.526 9.998C96.01 10.226 95.602 10.556 95.302 10.988C95.002 11.408 94.852 11.924 94.852 12.536C94.852 13.112 94.99 13.616 95.266 14.048C95.542 14.468 95.938 14.798 96.454 15.038C96.97 15.278 97.576 15.398 98.272 15.398ZM92.512 8.054H94.744L94.852 10.43V20.6H92.512V8.054ZM109.893 17.198C109.005 17.198 108.195 17.006 107.463 16.622C106.743 16.226 106.167 15.68 105.735 14.984C105.315 14.276 105.105 13.46 105.105 12.536C105.105 11.588 105.321 10.766 105.753 10.07C106.185 9.374 106.767 8.834 107.499 8.45C108.243 8.054 109.083 7.856 110.019 7.856C111.051 7.856 111.879 8.066 112.503 8.486C113.139 8.894 113.601 9.452 113.889 10.16C114.177 10.868 114.321 11.66 114.321 12.536C114.321 13.064 114.237 13.604 114.069 14.156C113.901 14.696 113.643 15.2 113.295 15.668C112.947 16.124 112.491 16.496 111.927 16.784C111.363 17.06 110.685 17.198 109.893 17.198ZM110.649 15.398C111.357 15.398 111.969 15.278 112.485 15.038C113.001 14.798 113.397 14.462 113.673 14.03C113.949 13.598 114.087 13.1 114.087 12.536C114.087 11.924 113.943 11.408 113.655 10.988C113.379 10.556 112.983 10.232 112.467 10.016C111.963 9.788 111.357 9.674 110.649 9.674C109.653 9.674 108.879 9.938 108.327 10.466C107.775 10.982 107.499 11.672 107.499 12.536C107.499 13.112 107.631 13.616 107.895 14.048C108.159 14.468 108.525 14.798 108.993 15.038C109.473 15.278 110.025 15.398 110.649 15.398ZM114.087 8.054H116.427V17H114.249C114.249 17 114.231 16.886 114.195 16.658C114.171 16.418 114.147 16.118 114.123 15.758C114.099 15.398 114.087 15.044 114.087 14.696V8.054ZM122.901 17.198C122.001 17.198 121.185 17.006 120.453 16.622C119.733 16.226 119.163 15.68 118.743 14.984C118.323 14.276 118.113 13.46 118.113 12.536C118.113 11.588 118.317 10.766 118.725 10.07C119.145 9.374 119.715 8.834 120.435 8.45C121.155 8.054 121.977 7.856 122.901 7.856C123.705 7.856 124.389 7.976 124.953 8.216C125.517 8.456 125.973 8.792 126.321 9.224C126.669 9.644 126.921 10.136 127.077 10.7C127.245 11.264 127.329 11.876 127.329 12.536C127.329 13.064 127.245 13.604 127.077 14.156C126.909 14.696 126.651 15.2 126.303 15.668C125.955 16.124 125.499 16.496 124.935 16.784C124.371 17.06 123.693 17.198 122.901 17.198ZM123.657 15.398C124.365 15.398 124.977 15.278 125.493 15.038C126.009 14.798 126.405 14.462 126.681 14.03C126.957 13.598 127.095 13.1 127.095 12.536C127.095 11.924 126.951 11.408 126.663 10.988C126.387 10.556 125.991 10.226 125.475 9.998C124.971 9.77 124.365 9.656 123.657 9.656C122.661 9.656 121.887 9.92 121.335 10.448C120.783 10.976 120.507 11.672 120.507 12.536C120.507 13.112 120.639 13.616 120.903 14.048C121.167 14.468 121.533 14.798 122.001 15.038C122.481 15.278 123.033 15.398 123.657 15.398ZM127.095 4.454H129.435V17H127.257C127.221 16.724 127.185 16.37 127.149 15.938C127.113 15.494 127.095 15.08 127.095 14.696V4.454Z" fill="black"/>
<path d="M20.6995 7.45077L20.4438 7.96931C20.2567 8.34893 19.6626 8.34893 19.4754 7.96931L19.2198 7.45077C18.764 6.52618 17.943 5.79004 16.9186 5.38732L16.1307 5.07762C15.7048 4.91015 15.7048 4.36224 16.1307 4.19477L16.8745 3.90238C17.9253 3.4893 18.761 2.72592 19.2089 1.76993L19.4715 1.20957C19.6545 0.81903 20.2647 0.81903 20.4477 1.20957L20.7103 1.76993C21.1583 2.72592 21.994 3.4893 23.0448 3.90238L23.7885 4.19477C24.2145 4.36224 24.2145 4.91015 23.7885 5.07762L23.0007 5.38732C21.9763 5.79004 21.1553 6.52618 20.6995 7.45077ZM15.8113 19.7437L9.58872 6.91039L7.16131 11.9167H1.29199V10.0833H5.79359L9.58872 2.25631L15.8113 15.0896L18.2387 10.0833H24.108V11.9167H19.6064L15.8113 19.7437Z" fill="#C5F74F"/>
</svg>
